<svg xmlns="http://www.w3.org/2000/svg" width="579" height="230" viewBox="0 0 579 230">
  <g fill="none">
    <rect width="579" height="230" fill="#FFF"/>
    <g fill="#FFC600" transform="translate(40 40)">
      <path d="M53.48 14.064C53.48 14.064 51.791 14.324 51.195 12.538 50.594 10.749 50.994 9.354 49.802 8.958 48.607 8.562 47.219 8.165 47.219 8.165L46.78 5.781C46.78 5.781 47.935 2.575 45.342.802 42.475-1.166 38.729 1.422 39.531 4.403 40.322 7.387 42.443 7.37 42.443 7.37L41.665 8.004 36.773 8.146C36.773 8.146 34.25 8.535 33.32 9.383 32.256 10.349 31.99 9.564 31.99 9.564L29.479 6.045C29.479 6.045 26.462 2.535 24.428 3.595 23.019 4.327 23.314 7.696 25.105 11.469 26.896 15.247 31.707 20.134 31.707 20.134L32.961 93.532C32.961 93.532 33 101.507 31.477 103.508 29.388 106.249 24.338 105.446 23.813 105.446 18.922 104.92 11.115 105.136 9.295 105.57 5.512 106.22 3.537 108.386 2.368 110.012.132 112.844.385 116.39.385 118.64.385 120.892.399 146.17.399 146.17.399 146.17.47 149.66 3.448 149.771 6.403 149.885 6.675 145.435 6.675 145.435L7.323 128.217C7.323 128.217 6.923 126.156 9.1 125.183 11.279 124.214 12.532 124.576 12.532 124.576L29.262 124.566C29.262 124.566 32.065 124.348 32.832 125.42 33.635 126.542 34.234 128.448 34.234 128.448L34.617 146.155C34.617 146.155 34.852 149.793 38.007 149.789 41.156 149.789 41.203 145.719 41.203 145.719L42.457 31.626C42.457 31.626 42.078 25.38 44.266 24.587 47.53 23.395 61.712 23.864 61.712 23.864 61.712 23.864 63.637 22.258 60.987 17.72 59.026 14.362 53.48 14.064 53.48 14.064zM123.024 145.646C120.243 146.645 114.753 148.286 108.263 148.286 100.989 148.286 94.999 146.431 90.292 141.937 86.156 137.945 83.589 131.527 83.589 124.04 83.66 109.706 93.501 99.225 109.617 99.225 115.18 99.225 119.529 100.436 121.597 101.434L120.1 106.498C117.533 105.357 114.324 104.429 109.474 104.429 97.779 104.429 90.149 111.703 90.149 123.756 90.149 135.948 97.494 143.152 108.69 143.152 112.754 143.152 115.536 142.582 116.961 141.869L116.961 127.535 107.192 127.535 107.192 122.544 123.022 122.544 123.022 145.646 123.024 145.646z"/>
      <polygon points="142.284 99.723 142.284 147.786 136.08 147.786 136.08 99.723"/>
      <path d="M156.692 100.364C159.829 99.722 164.323 99.367 168.601 99.367 175.233 99.367 179.511 100.578 182.506 103.288 184.93 105.426 186.285 108.707 186.285 112.416 186.285 118.762 182.292 122.97 177.229 124.68L177.229 124.895C180.936 126.177 183.147 129.602 184.289 134.593 185.857 141.297 186.998 145.931 187.996 147.785L181.578 147.785C180.795 146.43 179.724 142.295 178.369 136.304 176.943 129.671 174.376 127.176 168.742 126.963L162.894 126.963 162.894 147.785 156.691 147.785 156.691 100.364 156.692 100.364zM162.896 122.258L169.244 122.258C175.876 122.258 180.083 118.62 180.083 113.13 180.083 106.924 175.591 104.215 169.029 104.143 166.035 104.143 163.895 104.428 162.896 104.714L162.896 122.258zM206.756 132.668L201.765 147.785 195.347 147.785 211.677 99.722 219.164 99.722 235.565 147.785 228.934 147.785 223.799 132.668 206.756 132.668zM222.516 127.817L217.809 113.984C216.74 110.846 216.027 107.995 215.313 105.213L215.171 105.213C214.458 108.065 213.674 110.99 212.746 113.914L208.039 127.817 222.516 127.817z"/>
      <polygon points="246.198 99.723 272.083 99.723 272.083 104.927 252.401 104.927 252.401 120.902 270.586 120.902 270.586 126.037 252.401 126.037 252.401 147.786 246.198 147.786"/>
      <polygon points="284.496 99.723 310.382 99.723 310.382 104.927 290.7 104.927 290.7 120.902 308.884 120.902 308.884 126.037 290.7 126.037 290.7 147.786 284.496 147.786"/>
      <polygon points="347.682 125.252 328.999 125.252 328.999 142.58 349.821 142.58 349.821 147.785 322.795 147.785 322.795 99.722 348.752 99.722 348.752 104.926 328.999 104.926 328.999 120.117 347.682 120.117"/>
      <path d="M379.638 137.161C381.563 138.158 385.985 140.014 390.406 140.014 396.04 140.014 398.891 137.302 398.891 133.808 398.891 129.246 394.328 127.176 389.55 127.176L385.128 127.176 385.128 119.405 389.336 119.405C392.973 119.334 397.608 117.979 397.608 114.055 397.608 111.275 395.325 109.206 390.761 109.206 386.983 109.206 382.99 110.847 381.062 111.988L378.853 104.142C381.633 102.361 387.196 100.649 393.187 100.649 403.098 100.649 408.589 105.855 408.589 112.201 408.589 117.123 405.809 120.973 400.103 122.97L400.103 123.113C405.666 124.112 410.158 128.317 410.158 134.381 410.158 142.581 402.955 148.57 391.19 148.57 385.199 148.57 380.136 147.003 377.427 145.291L379.638 137.161zM450.453 109.135C449.241 109.064 447.958 109.135 446.246 109.279 436.619 110.062 432.34 114.984 431.128 120.403L431.342 120.403C433.624 118.049 436.834 116.694 441.183 116.694 448.956 116.694 455.517 122.184 455.517 131.812 455.517 141.013 448.457 148.57 438.403 148.57 426.066 148.57 420.005 139.373 420.005 128.317 420.005 119.62 423.213 112.345 428.206 107.71 432.839 103.504 438.832 101.221 446.103 100.865 448.1 100.721 449.384 100.721 450.454 100.792L450.454 109.135 450.453 109.135zM444.533 132.384C444.533 128.104 442.253 124.396 437.617 124.396 434.694 124.396 432.269 126.177 431.2 128.532 430.914 129.103 430.772 129.958 430.772 131.243 430.985 136.163 433.337 140.583 438.259 140.583 442.109 140.582 444.533 137.089 444.533 132.384zM498.236 124.396C498.236 138.73 492.459 148.57 480.621 148.57 468.642 148.57 463.364 137.801 463.295 124.68 463.295 111.275 468.998 100.65 480.98 100.65 493.386 100.649 498.236 111.702 498.236 124.396zM474.203 124.68C474.133 135.305 476.699 140.37 480.907 140.37 485.113 140.37 487.396 135.093 487.396 124.539 487.396 114.269 485.185 108.851 480.835 108.851 476.843 108.851 474.133 113.914 474.203 124.68z"/>
    </g>
  </g>
</svg>
